<?xml version="1.0" encoding="UTF-8"?>
<svg width="100" height="100" viewBox="0 0 100 100" xmlns="http://www.w3.org/2000/svg">
  <circle cx="50" cy="50" r="45" fill="#2D68F8" opacity="0.1"/>
  <path d="M50 20C33.431 20 20 33.431 20 50s13.431 30 30 30 30-13.431 30-30S66.569 20 50 20zm0 54c-13.255 0-24-10.745-24-24s10.745-24 24-24 24 10.745 24 24-10.745 24-24 24z" fill="#2D68F8"/>
  <path d="M50 35c-2.761 0-5 2.239-5 5v20c0 2.761 2.239 5 5 5s5-2.239 5-5V40c0-2.761-2.239-5-5-5z" fill="#2D68F8"/>
  <path d="M65 50c0-2.761-2.239-5-5-5H40c-2.761 0-5 2.239-5 5s2.239 5 5 5h20c2.761 0 5-2.239 5-5z" fill="#2D68F8"/>
</svg> 